<svg width="43" height="28" viewBox="0 0 43 28" fill="none" xmlns="http://www.w3.org/2000/svg">
<rect x="1.2998" y="1.4707" width="41" height="26" fill="white" stroke="#9B9B9B"/>
<path d="M9.56383 10.5322L6.00879 18.3994H10.2647L10.7923 17.1451H11.9983L12.5259 18.3994H17.2104V17.442L17.6278 18.3994H20.051L20.4684 17.4218V18.3994H30.211L31.3956 17.1776L32.5049 18.3994L37.5089 18.4095L33.9426 14.4878L37.5089 10.5322H32.5825L31.4293 11.7314L30.355 10.5322H19.7564L18.8463 12.5628L17.9148 10.5322H13.6678V11.457L13.1954 10.5322H9.56383ZM10.3873 11.6494H12.4618L14.8199 16.9842V11.6494H17.0924L18.9138 15.4744L20.5923 11.6494H22.8535V17.2946H21.4776L21.4664 12.871L19.4605 17.2946H18.2297L16.2126 12.871V17.2946H13.382L12.8454 16.029H9.94633L9.41083 17.2935H7.89427L10.3873 11.6494ZM24.1123 11.6494H29.7069L31.4181 13.4977L33.1844 11.6494H34.8955L32.2956 14.4867L34.8955 17.2913H33.1068L31.3956 15.4215L29.6203 17.2913H24.1123V11.6494ZM11.3965 12.6045L10.4414 14.8591H12.3505L11.3965 12.6045ZM25.4939 12.8182V13.8488H28.546V14.9974H25.4939V16.1224H28.9173L30.508 14.4653L28.9848 12.8172H25.4939V12.8182Z" fill="#9B9B9B"/>
</svg>
