<svg width="30" height="30" viewBox="0 0 30 30" fill="none" xmlns="http://www.w3.org/2000/svg">
<path fill-rule="evenodd" clip-rule="evenodd" d="M6 6.84993C6 6.62451 6.0862 6.40833 6.23964 6.24894C6.39308 6.08955 6.60119 6 6.81818 6H15.8182C16.0352 6 16.2433 6.08955 16.3967 6.24894C16.5502 6.40833 16.6364 6.62451 16.6364 6.84993V11.0996H19.9091C20.4463 11.0996 20.9783 11.2095 21.4746 11.4231C21.9709 11.6366 22.4219 11.9496 22.8018 12.3443C23.1817 12.7389 23.483 13.2074 23.6886 13.7229C23.8942 14.2385 24 14.7911 24 15.3492V18.7489C24.0001 19.2961 23.8308 19.8287 23.5171 20.2683C23.2035 20.7078 22.7621 21.0309 22.2581 21.1899C22.108 21.7041 21.8054 22.156 21.3935 22.4809C20.9816 22.8058 20.4813 22.9873 19.9642 22.9994C19.4471 23.0114 18.9395 22.8535 18.514 22.5481C18.0884 22.2427 17.7666 21.8054 17.5945 21.2987H12.4064C12.2342 21.8054 11.9124 22.2427 11.4869 22.5481C11.0613 22.8535 10.5537 23.0114 10.0366 22.9994C9.51949 22.9873 9.01926 22.8058 8.60732 22.4809C8.19538 22.156 7.89278 21.7041 7.74273 21.1899C7.2386 21.0311 6.79701 20.708 6.48319 20.2685C6.16937 19.8289 5.99997 19.2962 6 18.7489V15.3492H10.9091C11.1261 15.3492 11.3342 15.2597 11.4876 15.1003C11.6411 14.9409 11.7273 14.7247 11.7273 14.4993C11.7273 14.2739 11.6411 14.0577 11.4876 13.8983C11.3342 13.7389 11.1261 13.6494 10.9091 13.6494H6V11.9495H9.27273C9.48972 11.9495 9.69783 11.86 9.85127 11.7006C10.0047 11.5412 10.0909 11.325 10.0909 11.0996C10.0909 10.8742 10.0047 10.658 9.85127 10.4986C9.69783 10.3392 9.48972 10.2496 9.27273 10.2496H6V6.84993ZM16.6364 19.5989H17.5945C17.7562 19.1233 18.0501 18.7082 18.439 18.4062C18.8278 18.1041 19.2942 17.9287 19.7791 17.902C20.2639 17.8754 20.7455 17.9987 21.1629 18.2564C21.5803 18.5141 21.9147 18.8946 22.1239 19.3498C22.2 19.271 22.2603 19.1773 22.3015 19.0742C22.3426 18.9711 22.3637 18.8606 22.3636 18.7489V15.3492C22.3636 14.673 22.105 14.0244 21.6447 13.5462C21.1844 13.0681 20.5601 12.7994 19.9091 12.7994H16.6364V19.5989ZM10.9091 20.4488C10.9091 20.2234 10.8229 20.0072 10.6695 19.8478C10.516 19.6884 10.3079 19.5989 10.0909 19.5989C9.87391 19.5989 9.66581 19.6884 9.51237 19.8478C9.35893 20.0072 9.27273 20.2234 9.27273 20.4488C9.27273 20.6742 9.35893 20.8904 9.51237 21.0498C9.66581 21.2092 9.87391 21.2987 10.0909 21.2987C10.3079 21.2987 10.516 21.2092 10.6695 21.0498C10.8229 20.8904 10.9091 20.6742 10.9091 20.4488ZM19.3306 19.8479C19.2544 19.9266 19.194 20.0203 19.1529 20.1234C19.1117 20.2266 19.0907 20.3371 19.0909 20.4488C19.0909 20.6454 19.1565 20.836 19.2765 20.988C19.3966 21.1401 19.5637 21.2441 19.7493 21.2825C19.935 21.3209 20.1277 21.2913 20.2946 21.1986C20.4616 21.106 20.5925 20.956 20.6649 20.7744C20.7374 20.5927 20.747 20.3906 20.6921 20.2024C20.6372 20.0142 20.5211 19.8516 20.3638 19.7424C20.2064 19.6331 20.0174 19.5839 19.829 19.6031C19.6406 19.6224 19.4645 19.7089 19.3306 19.8479Z" fill="black"/>
</svg>
