<svg width="43" height="28" viewBox="0 0 43 28" fill="none" xmlns="http://www.w3.org/2000/svg">
<rect x="1.1001" y="1.4707" width="41" height="26" fill="white" stroke="#9B9B9B"/>
<path d="M21.1978 14.3646V18.1996H19.9609V8.71533H23.1778C23.9609 8.71533 24.7028 9.00344 25.2809 9.53969C25.8584 10.034 26.1471 10.7765 26.1471 11.5603C26.1471 12.344 25.859 13.0446 25.2809 13.5809C24.7034 14.1171 24.0028 14.4053 23.1778 14.4053L21.1978 14.3646ZM21.1978 9.86969V13.169H23.2603C23.714 13.169 24.1678 13.0034 24.4565 12.6747C25.1165 12.0566 25.1165 11.0253 24.4971 10.4066L24.4565 10.3647C24.1265 10.0347 23.714 9.82844 23.2603 9.87033H21.1978V9.86969Z" fill="#9B9B9B"/>
<path d="M28.9919 11.5203C29.8994 11.5203 30.6 11.7671 31.1363 12.2628C31.6725 12.7571 31.9194 13.4171 31.9194 14.2421V18.2015H30.765V17.294H30.7244C30.2301 18.0365 29.5282 18.4077 28.7038 18.4077C28.0032 18.4077 27.3838 18.2015 26.8895 17.7896C26.4357 17.3771 26.147 16.7996 26.147 16.1815C26.147 15.5215 26.3945 14.9866 26.8895 14.5734C27.3838 14.1609 28.0844 13.9959 28.9101 13.9959C29.6526 13.9959 30.2301 14.1197 30.6832 14.4084V14.1203C30.6832 13.7078 30.5188 13.2959 30.1888 13.0478C29.8588 12.7597 29.4463 12.5941 28.9926 12.5941C28.292 12.5941 27.7557 12.8822 27.3845 13.4603L26.312 12.8003C26.9713 11.9321 27.8376 11.5203 28.9919 11.5203ZM27.4251 16.2208C27.4251 16.5508 27.5894 16.8389 27.8376 17.0039C28.1257 17.2102 28.4557 17.3339 28.7857 17.3339C29.28 17.3339 29.7757 17.1277 30.1463 16.7571C30.5588 16.3852 30.7644 15.9327 30.7644 15.4371C30.3938 15.149 29.8569 14.9833 29.1563 14.9833C28.6619 14.9833 28.2488 15.1071 27.9194 15.3539C27.5894 15.5608 27.4251 15.8496 27.4251 16.2208Z" fill="#9B9B9B"/>
<path d="M38.6003 11.7256L34.5185 21.0855H33.2803L34.8066 17.828L32.126 11.7662H33.446L35.3834 16.4255H35.4247L37.3215 11.7662H38.6003V11.7256Z" fill="#9B9B9B"/>
<path d="M16.2915 13.5403C16.2915 13.1684 16.2496 12.7978 16.209 12.4265H11.0547V14.5296H13.9821C13.8584 15.1896 13.4878 15.8077 12.9096 16.179V17.5396H14.6828C15.7134 16.5915 16.2915 15.189 16.2915 13.5403Z" fill="#9B9B9B"/>
<path d="M11.0536 18.8592C12.5379 18.8592 13.7748 18.3649 14.6829 17.5392L12.9098 16.1786C12.4154 16.5086 11.7961 16.7149 11.0548 16.7149C9.65234 16.7149 8.41549 15.7668 8.00363 14.4468H6.18799V15.8493C7.13609 17.7049 8.99234 18.8592 11.0536 18.8592Z" fill="#C8C8C8"/>
<path d="M8.00227 14.4477C7.75477 13.7877 7.75477 13.0452 8.00227 12.3446V10.9421H6.18791C5.40416 12.4684 5.40416 14.2827 6.18791 15.8496L8.00227 14.4477Z" fill="#9B9B9B"/>
<path d="M11.0533 10.1174C11.8371 10.1174 12.5796 10.4055 13.1564 10.9417L14.7239 9.37487C13.7339 8.46801 12.4146 7.93176 11.0946 7.97237C9.03207 7.97237 7.1365 9.12672 6.229 10.983L8.04336 12.3842C8.41461 11.0661 9.65146 10.1174 11.0533 10.1174Z" fill="#C8C8C8"/>
</svg>
