<svg width="43" height="28" viewBox="0 0 43 28" fill="none" xmlns="http://www.w3.org/2000/svg">
<rect x="0.899902" y="1.4707" width="41" height="26" fill="white" stroke="#9B9B9B"/>
<path d="M13.4037 24.0039V22.733C13.4037 22.2469 13.1076 21.9285 12.5992 21.9285C12.345 21.9285 12.0687 22.0124 11.8786 22.2888C11.7306 22.0569 11.5184 21.9285 11.2 21.9285C10.9878 21.9285 10.7756 21.9927 10.6078 22.2247V21.9705H10.1636V24.0039H10.6078V22.8811C10.6078 22.5208 10.7978 22.3505 11.0939 22.3505C11.39 22.3505 11.5381 22.5405 11.5381 22.8811V24.0039H11.9823V22.8811C11.9823 22.5208 12.1945 22.3505 12.4684 22.3505C12.7646 22.3505 12.9126 22.5405 12.9126 22.8811V24.0039H13.4037ZM19.9925 21.9705H19.272V21.356H18.8278V21.9705H18.4255V22.3727H18.8278V23.3055C18.8278 23.7719 19.0178 24.0459 19.5261 24.0459C19.7162 24.0459 19.9284 23.9817 20.0764 23.8978L19.9481 23.5153C19.8198 23.5992 19.6717 23.6214 19.5656 23.6214C19.3534 23.6214 19.2695 23.4931 19.2695 23.2833V22.3727H19.9901V21.9705H19.9925ZM23.7632 21.9261C23.5091 21.9261 23.3388 22.0544 23.2327 22.2222V21.968H22.7885V24.0014H23.2327V22.8564C23.2327 22.5183 23.3807 22.3258 23.6571 22.3258C23.741 22.3258 23.8471 22.3481 23.9335 22.3678L24.0618 21.9434C23.973 21.9261 23.8471 21.9261 23.7632 21.9261ZM18.0652 22.1383C17.853 21.9902 17.5569 21.9261 17.2386 21.9261C16.7302 21.9261 16.3921 22.1803 16.3921 22.5825C16.3921 22.9206 16.6463 23.1131 17.0905 23.1747L17.3027 23.197C17.5347 23.2389 17.663 23.3031 17.663 23.4092C17.663 23.5572 17.4927 23.6634 17.1966 23.6634C16.9005 23.6634 16.666 23.5572 16.518 23.4511L16.3058 23.7892C16.5377 23.9595 16.8561 24.0434 17.1744 24.0434C17.7666 24.0434 18.1072 23.767 18.1072 23.387C18.1072 23.0267 17.8308 22.8367 17.4088 22.7725L17.1966 22.7503C17.0066 22.7281 16.8585 22.6861 16.8585 22.5603C16.8585 22.4122 17.0066 22.3283 17.241 22.3283C17.4952 22.3283 17.7494 22.4344 17.8777 22.4986L18.0652 22.1383ZM29.8832 21.9261C29.629 21.9261 29.4587 22.0544 29.3526 22.2222V21.968H28.9084V24.0014H29.3526V22.8564C29.3526 22.5183 29.5007 22.3258 29.7771 22.3258C29.861 22.3258 29.9671 22.3481 30.0535 22.3678L30.1818 21.9483C30.0954 21.9261 29.9696 21.9261 29.8832 21.9261ZM24.2074 22.9872C24.2074 23.6017 24.6319 24.0459 25.2883 24.0459C25.5844 24.0459 25.7966 23.9817 26.0089 23.8139L25.7966 23.4536C25.6264 23.5819 25.4586 23.6436 25.2661 23.6436C24.9058 23.6436 24.6516 23.3894 24.6516 22.9872C24.6516 22.6047 24.9058 22.3505 25.2661 22.3308C25.4561 22.3308 25.6264 22.3949 25.7966 22.5208L26.0089 22.1605C25.7966 21.9902 25.5844 21.9285 25.2883 21.9285C24.6319 21.9261 24.2074 22.3727 24.2074 22.9872ZM28.3162 22.9872V21.9705H27.872V22.2247C27.7239 22.0347 27.5117 21.9285 27.2353 21.9285C26.6628 21.9285 26.2186 22.3727 26.2186 22.9872C26.2186 23.6017 26.6628 24.0459 27.2353 24.0459C27.5314 24.0459 27.7437 23.9397 27.872 23.7497V24.0039H28.3162V22.9872ZM26.685 22.9872C26.685 22.6269 26.917 22.3308 27.2995 22.3308C27.6598 22.3308 27.9139 22.6072 27.9139 22.9872C27.9139 23.3475 27.6598 23.6436 27.2995 23.6436C26.9195 23.6214 26.685 23.345 26.685 22.9872ZM21.3695 21.9261C20.7773 21.9261 20.3528 22.3505 20.3528 22.9847C20.3528 23.6214 20.7773 24.0434 21.3917 24.0434C21.6879 24.0434 21.984 23.9595 22.2184 23.767L22.0062 23.4487C21.8359 23.577 21.6237 23.6609 21.4139 23.6609C21.1376 23.6609 20.8636 23.5326 20.7995 23.1747H22.3023C22.3023 23.1106 22.3023 23.0686 22.3023 23.0045C22.3221 22.3505 21.9396 21.9261 21.3695 21.9261ZM21.3695 22.3086C21.6459 22.3086 21.8359 22.4788 21.8779 22.7947H20.8192C20.8612 22.5208 21.0512 22.3086 21.3695 22.3086ZM32.4052 22.9872V21.166H31.961V22.2247C31.813 22.0347 31.6007 21.9285 31.3243 21.9285C30.7518 21.9285 30.3076 22.3727 30.3076 22.9872C30.3076 23.6017 30.7518 24.0459 31.3243 24.0459C31.6205 24.0459 31.8327 23.9397 31.961 23.7497V24.0039H32.4052V22.9872ZM30.774 22.9872C30.774 22.6269 31.006 22.3308 31.3885 22.3308C31.7488 22.3308 32.003 22.6072 32.003 22.9872C32.003 23.3475 31.7488 23.6436 31.3885 23.6436C31.006 23.6214 30.774 23.345 30.774 22.9872ZM15.9035 22.9872V21.9705H15.4593V22.2247C15.3113 22.0347 15.099 21.9285 14.8226 21.9285C14.2501 21.9285 13.8059 22.3727 13.8059 22.9872C13.8059 23.6017 14.2501 24.0459 14.8226 24.0459C15.1188 24.0459 15.331 23.9397 15.4593 23.7497V24.0039H15.9035V22.9872ZM14.2526 22.9872C14.2526 22.6269 14.4846 22.3308 14.8671 22.3308C15.2274 22.3308 15.4815 22.6072 15.4815 22.9872C15.4815 23.3475 15.2274 23.6436 14.8671 23.6436C14.4846 23.6214 14.2526 23.345 14.2526 22.9872Z" fill="#9B9B9B"/>
<path d="M24.5897 6.52734H17.917V18.5156H24.5897V6.52734Z" fill="#AFAFAF"/>
<path d="M18.3613 12.5218C18.3613 10.0861 19.5063 7.92439 21.2633 6.52765C19.9703 5.51095 18.3391 4.89648 16.5599 4.89648C12.345 4.89648 8.93457 8.30689 8.93457 12.5218C8.93457 16.7366 12.345 20.147 16.5599 20.147C18.3391 20.147 19.9703 19.5326 21.2633 18.5159C19.5039 17.1389 18.3613 14.9574 18.3613 12.5218Z" fill="#9B9B9B"/>
<path d="M33.5924 12.522C33.5924 16.7369 30.182 20.1473 25.9672 20.1473C24.1879 20.1473 22.5568 19.5328 21.2637 18.5161C23.0429 17.1169 24.1657 14.9577 24.1657 12.522C24.1657 10.0864 23.0207 7.92463 21.2637 6.5279C22.5543 5.51119 24.1855 4.89673 25.9647 4.89673C30.182 4.89673 33.5924 8.32934 33.5924 12.522Z" fill="#C6C6C6"/>
</svg>
