<svg width="94" height="16" viewBox="0 0 94 16" fill="none" xmlns="http://www.w3.org/2000/svg">
<g clip-path="url(#clip0_18_815)">
<path d="M8 0C6.41775 0 4.87103 0.469192 3.55544 1.34824C2.23985 2.22729 1.21447 3.47672 0.608967 4.93853C0.00346627 6.40034 -0.15496 8.00887 0.153721 9.56072C0.462403 11.1126 1.22433 12.538 2.34315 13.6569C3.46197 14.7757 4.88743 15.5376 6.43928 15.8463C7.99113 16.155 9.59966 15.9965 11.0615 15.391C12.5233 14.7855 13.7727 13.7602 14.6518 12.4446C15.5308 11.129 16 9.58225 16 8C16 5.87827 15.1571 3.84344 13.6569 2.34315C12.1566 0.842854 10.1217 0 8 0ZM6.85715 11.1943L4 8.33714L4.90857 7.42857L6.85715 9.37714L11.0914 5.14286L12.0034 6.04914L6.85715 11.1943Z" fill="#6FD24C"/>
<path d="M23.4148 3.77273L26.0057 11.1193H26.108L28.6989 3.77273H29.8068L26.6023 12.5H25.5114L22.3068 3.77273H23.4148ZM33.1648 12.6364C32.5341 12.6364 31.9901 12.4972 31.5327 12.2188C31.0781 11.9375 30.7273 11.5455 30.4801 11.0426C30.2358 10.5369 30.1136 9.94886 30.1136 9.27841C30.1136 8.60795 30.2358 8.01705 30.4801 7.50568C30.7273 6.99148 31.071 6.59091 31.5114 6.30398C31.9545 6.0142 32.4716 5.86932 33.0625 5.86932C33.4034 5.86932 33.7401 5.92614 34.0724 6.03977C34.4048 6.15341 34.7074 6.33807 34.9801 6.59375C35.2528 6.84659 35.4702 7.18182 35.6321 7.59943C35.794 8.01705 35.875 8.53125 35.875 9.14205V9.56818H30.8295V8.69886H34.8523C34.8523 8.32955 34.7784 8 34.6307 7.71023C34.4858 7.42045 34.2784 7.19176 34.0085 7.02415C33.7415 6.85653 33.4261 6.77273 33.0625 6.77273C32.6619 6.77273 32.3153 6.87216 32.0227 7.07102C31.733 7.26705 31.5099 7.52273 31.3537 7.83807C31.1974 8.15341 31.1193 8.49148 31.1193 8.85227V9.43182C31.1193 9.92614 31.2045 10.3452 31.375 10.6889C31.5483 11.0298 31.7884 11.2898 32.0952 11.4688C32.402 11.6449 32.7585 11.733 33.1648 11.733C33.429 11.733 33.6676 11.696 33.8807 11.6222C34.0966 11.5455 34.2827 11.4318 34.4389 11.2812C34.5952 11.1278 34.7159 10.9375 34.8011 10.7102L35.7727 10.983C35.6705 11.3125 35.4986 11.6023 35.2571 11.8523C35.0156 12.0994 34.7173 12.2926 34.3622 12.4318C34.0071 12.5682 33.608 12.6364 33.1648 12.6364ZM37.4048 12.5V5.95455H38.3764V6.94318H38.4446C38.5639 6.61932 38.7798 6.35653 39.0923 6.15483C39.4048 5.95312 39.7571 5.85227 40.1491 5.85227C40.223 5.85227 40.3153 5.85369 40.4261 5.85653C40.5369 5.85937 40.6207 5.86364 40.6776 5.86932V6.89205C40.6435 6.88352 40.5653 6.87074 40.4432 6.85369C40.3239 6.83381 40.1974 6.82386 40.0639 6.82386C39.7457 6.82386 39.4616 6.89062 39.2116 7.02415C38.9645 7.15483 38.7685 7.33665 38.6236 7.5696C38.4815 7.79972 38.4105 8.0625 38.4105 8.35795V12.5H37.4048ZM41.8697 12.5V5.95455H42.8754V12.5H41.8697ZM42.381 4.86364C42.185 4.86364 42.016 4.79688 41.8739 4.66335C41.7347 4.52983 41.6651 4.36932 41.6651 4.18182C41.6651 3.99432 41.7347 3.83381 41.8739 3.70028C42.016 3.56676 42.185 3.5 42.381 3.5C42.5771 3.5 42.7447 3.56676 42.8839 3.70028C43.0259 3.83381 43.0969 3.99432 43.0969 4.18182C43.0969 4.36932 43.0259 4.52983 42.8839 4.66335C42.7447 4.79688 42.5771 4.86364 42.381 4.86364ZM47.6321 5.95455V6.80682H44.1037V5.95455H47.6321ZM45.1605 12.5V5.05114C45.1605 4.67614 45.2486 4.36364 45.4247 4.11364C45.6009 3.86364 45.8295 3.67614 46.1108 3.55114C46.392 3.42614 46.6889 3.36364 47.0014 3.36364C47.2486 3.36364 47.4503 3.38352 47.6065 3.4233C47.7628 3.46307 47.8793 3.5 47.956 3.53409L47.6662 4.40341C47.6151 4.38636 47.544 4.36506 47.4531 4.33949C47.3651 4.31392 47.2486 4.30114 47.1037 4.30114C46.7713 4.30114 46.5313 4.38494 46.3835 4.55256C46.2386 4.72017 46.1662 4.96591 46.1662 5.28977V12.5H45.1605ZM49.0415 12.5V5.95455H50.0472V12.5H49.0415ZM49.5529 4.86364C49.3569 4.86364 49.1879 4.79688 49.0458 4.66335C48.9066 4.52983 48.837 4.36932 48.837 4.18182C48.837 3.99432 48.9066 3.83381 49.0458 3.70028C49.1879 3.56676 49.3569 3.5 49.5529 3.5C49.7489 3.5 49.9165 3.56676 50.0558 3.70028C50.1978 3.83381 50.2688 3.99432 50.2688 4.18182C50.2688 4.36932 50.1978 4.52983 50.0558 4.66335C49.9165 4.79688 49.7489 4.86364 49.5529 4.86364ZM54.6335 12.6364C54.0028 12.6364 53.4588 12.4972 53.0014 12.2188C52.5469 11.9375 52.196 11.5455 51.9489 11.0426C51.7045 10.5369 51.5824 9.94886 51.5824 9.27841C51.5824 8.60795 51.7045 8.01705 51.9489 7.50568C52.196 6.99148 52.5398 6.59091 52.9801 6.30398C53.4233 6.0142 53.9403 5.86932 54.5312 5.86932C54.8722 5.86932 55.2088 5.92614 55.5412 6.03977C55.8736 6.15341 56.1761 6.33807 56.4489 6.59375C56.7216 6.84659 56.9389 7.18182 57.1009 7.59943C57.2628 8.01705 57.3438 8.53125 57.3438 9.14205V9.56818H52.2983V8.69886H56.321C56.321 8.32955 56.2472 8 56.0994 7.71023C55.9545 7.42045 55.7472 7.19176 55.4773 7.02415C55.2102 6.85653 54.8949 6.77273 54.5312 6.77273C54.1307 6.77273 53.7841 6.87216 53.4915 7.07102C53.2017 7.26705 52.9787 7.52273 52.8224 7.83807C52.6662 8.15341 52.5881 8.49148 52.5881 8.85227V9.43182C52.5881 9.92614 52.6733 10.3452 52.8438 10.6889C53.017 11.0298 53.2571 11.2898 53.5639 11.4688C53.8707 11.6449 54.2273 11.733 54.6335 11.733C54.8977 11.733 55.1364 11.696 55.3494 11.6222C55.5653 11.5455 55.7514 11.4318 55.9077 11.2812C56.0639 11.1278 56.1847 10.9375 56.2699 10.7102L57.2415 10.983C57.1392 11.3125 56.9673 11.6023 56.7259 11.8523C56.4844 12.0994 56.1861 12.2926 55.831 12.4318C55.4759 12.5682 55.0767 12.6364 54.6335 12.6364ZM61.3452 12.6364C60.7997 12.6364 60.3182 12.4986 59.9006 12.223C59.483 11.9446 59.1563 11.5526 58.9205 11.0469C58.6847 10.5384 58.5668 9.9375 58.5668 9.24432C58.5668 8.55682 58.6847 7.96023 58.9205 7.45455C59.1563 6.94886 59.4844 6.55824 59.9048 6.28267C60.3253 6.0071 60.8111 5.86932 61.3622 5.86932C61.7884 5.86932 62.125 5.94034 62.3722 6.08239C62.6222 6.22159 62.8125 6.38068 62.9432 6.55966C63.0767 6.7358 63.1804 6.88068 63.2543 6.99432H63.3395V3.77273H64.3452V12.5H63.3736V11.4943H63.2543C63.1804 11.6136 63.0753 11.7642 62.9389 11.946C62.8026 12.125 62.608 12.2855 62.3551 12.4276C62.1023 12.5668 61.7656 12.6364 61.3452 12.6364ZM61.4815 11.733C61.8849 11.733 62.2259 11.6278 62.5043 11.4176C62.7827 11.2045 62.9943 10.9105 63.1392 10.5355C63.2841 10.1577 63.3565 9.72159 63.3565 9.22727C63.3565 8.73864 63.2855 8.31108 63.1435 7.9446C63.0014 7.57528 62.7912 7.28835 62.5128 7.08381C62.2344 6.87642 61.8906 6.77273 61.4815 6.77273C61.0554 6.77273 60.7003 6.8821 60.4162 7.10085C60.1349 7.31676 59.9233 7.6108 59.7812 7.98295C59.642 8.35227 59.5724 8.76705 59.5724 9.22727C59.5724 9.69318 59.6435 10.1165 59.7855 10.4972C59.9304 10.875 60.1435 11.1761 60.4247 11.4006C60.7088 11.6222 61.0611 11.733 61.4815 11.733ZM73.8267 9.82386V5.95455H74.8324V12.5H73.8267V11.392H73.7585C73.6051 11.7244 73.3665 12.0071 73.0426 12.2401C72.7188 12.4702 72.3097 12.5852 71.8153 12.5852C71.4062 12.5852 71.0426 12.4957 70.7244 12.3168C70.4063 12.1349 70.1563 11.8622 69.9744 11.4986C69.7926 11.1321 69.7017 10.6705 69.7017 10.1136V5.95455H70.7074V10.0455C70.7074 10.5227 70.8409 10.9034 71.108 11.1875C71.3778 11.4716 71.7216 11.6136 72.1392 11.6136C72.3892 11.6136 72.6435 11.5497 72.902 11.4219C73.1634 11.294 73.3821 11.098 73.5582 10.8338C73.7372 10.5696 73.8267 10.233 73.8267 9.82386ZM81.3107 7.42045L80.4073 7.67614C80.3505 7.52557 80.2667 7.37926 80.1559 7.23722C80.0479 7.09233 79.9002 6.97301 79.7127 6.87926C79.5252 6.78551 79.2852 6.73864 78.9925 6.73864C78.592 6.73864 78.2582 6.83097 77.9911 7.01562C77.7269 7.19744 77.5948 7.42898 77.5948 7.71023C77.5948 7.96023 77.6857 8.15767 77.8675 8.30256C78.0494 8.44744 78.3335 8.56818 78.7198 8.66477L79.6914 8.90341C80.2766 9.04545 80.7127 9.26278 80.9996 9.5554C81.2866 9.84517 81.43 10.2187 81.43 10.6761C81.43 11.0511 81.3221 11.3864 81.1062 11.6818C80.8931 11.9773 80.5948 12.2102 80.2113 12.3807C79.8278 12.5511 79.3817 12.6364 78.8732 12.6364C78.2056 12.6364 77.6531 12.4915 77.2156 12.2017C76.7781 11.9119 76.5011 11.4886 76.3846 10.9318L77.3391 10.6932C77.43 11.0455 77.6019 11.3097 77.8548 11.4858C78.1104 11.6619 78.4442 11.75 78.8562 11.75C79.3249 11.75 79.6971 11.6506 79.9727 11.4517C80.2511 11.25 80.3903 11.0085 80.3903 10.7273C80.3903 10.5 80.3107 10.3097 80.1516 10.1562C79.9925 10 79.7482 9.88352 79.4187 9.80682L78.3278 9.55114C77.7283 9.40909 77.288 9.18892 77.0067 8.89062C76.7283 8.58949 76.5891 8.21307 76.5891 7.76136C76.5891 7.39205 76.6928 7.06534 76.9002 6.78125C77.1104 6.49716 77.396 6.27415 77.7567 6.11222C78.1204 5.95028 78.5323 5.86932 78.9925 5.86932C79.6403 5.86932 80.1488 6.01136 80.5181 6.29545C80.8903 6.57955 81.1545 6.95455 81.3107 7.42045ZM85.6882 12.6364C85.0575 12.6364 84.5135 12.4972 84.0561 12.2188C83.6016 11.9375 83.2507 11.5455 83.0036 11.0426C82.7592 10.5369 82.6371 9.94886 82.6371 9.27841C82.6371 8.60795 82.7592 8.01705 83.0036 7.50568C83.2507 6.99148 83.5945 6.59091 84.0348 6.30398C84.478 6.0142 84.995 5.86932 85.5859 5.86932C85.9268 5.86932 86.2635 5.92614 86.5959 6.03977C86.9283 6.15341 87.2308 6.33807 87.5036 6.59375C87.7763 6.84659 87.9936 7.18182 88.1555 7.59943C88.3175 8.01705 88.3984 8.53125 88.3984 9.14205V9.56818H83.353V8.69886H87.3757C87.3757 8.32955 87.3018 8 87.1541 7.71023C87.0092 7.42045 86.8018 7.19176 86.532 7.02415C86.2649 6.85653 85.9496 6.77273 85.5859 6.77273C85.1854 6.77273 84.8388 6.87216 84.5462 7.07102C84.2564 7.26705 84.0334 7.52273 83.8771 7.83807C83.7209 8.15341 83.6428 8.49148 83.6428 8.85227V9.43182C83.6428 9.92614 83.728 10.3452 83.8984 10.6889C84.0717 11.0298 84.3118 11.2898 84.6186 11.4688C84.9254 11.6449 85.282 11.733 85.6882 11.733C85.9524 11.733 86.1911 11.696 86.4041 11.6222C86.62 11.5455 86.8061 11.4318 86.9624 11.2812C87.1186 11.1278 87.2393 10.9375 87.3246 10.7102L88.2962 10.983C88.1939 11.3125 88.022 11.6023 87.7805 11.8523C87.5391 12.0994 87.2408 12.2926 86.8857 12.4318C86.5305 12.5682 86.1314 12.6364 85.6882 12.6364ZM89.9283 12.5V5.95455H90.8999V6.94318H90.968C91.0874 6.61932 91.3033 6.35653 91.6158 6.15483C91.9283 5.95312 92.2805 5.85227 92.6726 5.85227C92.7464 5.85227 92.8388 5.85369 92.9496 5.85653C93.0604 5.85937 93.1442 5.86364 93.201 5.86932V6.89205C93.1669 6.88352 93.0888 6.87074 92.9666 6.85369C92.8473 6.83381 92.7209 6.82386 92.5874 6.82386C92.2692 6.82386 91.9851 6.89062 91.7351 7.02415C91.4879 7.15483 91.2919 7.33665 91.147 7.5696C91.005 7.79972 90.9339 8.0625 90.9339 8.35795V12.5H89.9283Z" fill="black"/>
</g>
<defs>
<clipPath id="clip0_18_815">
<rect width="94" height="16" fill="white"/>
</clipPath>
</defs>
</svg>
