<svg width="43" height="28" viewBox="0 0 43 28" fill="none" xmlns="http://www.w3.org/2000/svg">
<rect x="0.699707" y="1.4707" width="41" height="26" fill="white" stroke="#9B9B9B"/>
<path d="M17.1335 17.8198V9.08447H20.4099C21.0819 9.08447 21.6452 9.20944 22.1016 9.45939C22.558 9.70933 22.9039 10.0535 23.1376 10.49C23.3712 10.9264 23.4889 11.4227 23.4889 11.9769C23.4889 12.5312 23.3712 13.0347 23.1358 13.4693C22.9003 13.904 22.5508 14.2463 22.0907 14.4945C21.6307 14.7426 21.062 14.8676 20.3882 14.8676H18.2166V13.5672H20.1745C20.5675 13.5672 20.8881 13.4983 21.138 13.3625C21.388 13.2266 21.5745 13.0383 21.6941 12.7992C21.8154 12.5601 21.8752 12.2866 21.8752 11.9751C21.8752 11.6636 21.8154 11.3919 21.6941 11.1565C21.5727 10.921 21.3862 10.7363 21.1344 10.6041C20.8827 10.4718 20.5585 10.4066 20.1636 10.4066H18.7129V17.8216H17.1299L17.1335 17.8198Z" fill="#9B9B9B"/>
<path d="M26.566 17.9524C26.1513 17.9524 25.7782 17.8781 25.4467 17.7278C25.1153 17.5793 24.8545 17.3583 24.6625 17.0649C24.4705 16.7715 24.3745 16.4111 24.3745 15.9818C24.3745 15.6123 24.4433 15.3062 24.5792 15.0653C24.715 14.8245 24.9016 14.6307 25.1388 14.4858C25.3743 14.3409 25.6405 14.2304 25.9394 14.1543C26.2364 14.0783 26.5443 14.0239 26.8631 13.9895C27.247 13.9497 27.5586 13.9134 27.7976 13.8808C28.0367 13.8482 28.2106 13.7975 28.3211 13.7269C28.4316 13.6562 28.4859 13.5476 28.4859 13.4009V13.3755C28.4859 13.0549 28.3899 12.805 28.1997 12.6293C28.0096 12.4536 27.7343 12.3649 27.3756 12.3649C26.9971 12.3649 26.6983 12.4482 26.4773 12.613C26.2563 12.7778 26.1078 12.9734 26.0317 13.198L24.59 12.9934C24.7041 12.5949 24.8907 12.2616 25.1533 11.9936C25.4141 11.7255 25.7347 11.5227 26.1132 11.3886C26.4918 11.2528 26.9102 11.1858 27.3666 11.1858C27.6817 11.1858 27.9969 11.222 28.3102 11.2963C28.6235 11.3705 28.9097 11.4919 29.1669 11.6603C29.4259 11.8288 29.6342 12.0588 29.7918 12.3486C29.9493 12.6384 30.029 13.0006 30.029 13.4371V17.822H28.5439V16.9218H28.4931C28.399 17.1029 28.2686 17.2732 28.0983 17.4307C27.9299 17.5883 27.718 17.7151 27.4626 17.8111C27.2072 17.9071 26.9102 17.9542 26.5697 17.9542L26.566 17.9524ZM26.9663 16.8186C27.276 16.8186 27.5459 16.757 27.7723 16.6338C28.0005 16.5107 28.1762 16.3459 28.2993 16.1412C28.4225 15.9365 28.4841 15.7137 28.4841 15.471V14.6995C28.4352 14.7393 28.3537 14.7756 28.2396 14.81C28.1255 14.8444 27.9951 14.8734 27.8538 14.9005C27.7107 14.9259 27.5712 14.9494 27.4318 14.9694C27.2923 14.9893 27.171 15.0074 27.0696 15.0201C26.8395 15.0509 26.6331 15.1034 26.4501 15.174C26.2672 15.2447 26.1241 15.3443 26.0191 15.471C25.914 15.5978 25.8615 15.7608 25.8615 15.9601C25.8615 16.2444 25.9647 16.46 26.173 16.6049C26.3813 16.7497 26.6457 16.8222 26.9663 16.8222V16.8186Z" fill="#9B9B9B"/>
<path d="M32.3041 20.2775C32.094 20.2775 31.9002 20.2612 31.7227 20.2286C31.5452 20.196 31.4039 20.158 31.2989 20.1163L31.6575 18.9137C31.8821 18.9789 32.0831 19.0097 32.2588 19.0079C32.4345 19.0043 32.5903 18.9499 32.7261 18.8431C32.8619 18.7362 32.976 18.5587 33.0702 18.3124L33.2024 17.9592L30.8262 11.2705H32.4635L33.974 16.2187H34.0428L35.557 11.2705H37.1997L34.5753 18.6167C34.4522 18.9644 34.291 19.2614 34.0881 19.5096C33.8853 19.7577 33.6389 19.9497 33.3473 20.0819C33.0557 20.2141 32.708 20.2793 32.3041 20.2793V20.2775Z" fill="#9B9B9B"/>
<path d="M10.0446 18.2872C7.59047 18.2872 5.80826 16.639 5.80826 14.3696C5.80826 13.551 6.05821 12.3465 7.24816 11.2598L7.2717 11.2381L8.53047 12.5403C8.51598 12.5548 8.49606 12.5729 8.4707 12.5965C7.90561 13.1127 7.61945 13.7085 7.61945 14.3696C7.61945 15.6302 8.59386 16.476 10.0446 16.476C11.9264 16.476 13.1436 15.1629 13.1436 13.129C13.1436 11.5061 11.8649 9.78189 9.49583 9.78189C7.7408 9.78189 6.53455 11.0262 6.52368 11.0388L5.19971 9.8C5.26853 9.72574 6.93301 7.9707 9.49402 7.9707C12.9117 7.9707 14.9529 10.5933 14.9529 13.129C14.9529 16.1663 12.9335 18.2872 10.0428 18.2872H10.0446Z" fill="#9B9B9B"/>
</svg>
