<svg width="30" height="30" viewBox="0 0 30 30" fill="none" xmlns="http://www.w3.org/2000/svg">
<path d="M13.5172 11.821L14.0246 13.7134C14.5024 15.4961 14.7408 16.388 15.4433 16.7933C16.1458 17.1996 17.0374 16.9598 18.8207 16.4824L20.7124 15.9745C22.4957 15.4971 23.3873 15.2584 23.7932 14.5565C24.1992 13.8536 23.9607 12.9617 23.4819 11.179L22.9755 9.28759C22.4976 7.50386 22.2582 6.612 21.5567 6.2067C20.8533 5.80038 19.9616 6.04011 18.1783 6.51855L16.2867 7.02441C14.5034 7.50183 13.6117 7.74156 13.2068 8.44448C12.8009 9.14639 13.0393 10.0383 13.5172 11.821Z" fill="black"/>
<path d="M6.02792 8.53934C6.05498 8.44612 6.101 8.35892 6.16335 8.28271C6.22569 8.2065 6.30315 8.14278 6.39128 8.0952C6.47941 8.04762 6.5765 8.01711 6.67698 8.00541C6.77746 7.9937 6.87937 8.00104 6.97688 8.02701L8.72587 8.49026C9.18939 8.61057 9.6124 8.84359 9.95365 9.16662C10.2949 9.48965 10.5428 9.89166 10.6731 10.3335L12.8822 17.9752L13.0444 18.5111C13.6945 18.7437 14.2532 19.1785 14.6075 19.7556L14.9259 19.6614L24.0354 17.3991C24.1334 17.3747 24.2353 17.3691 24.3355 17.3824C24.4358 17.3957 24.5323 17.4277 24.6195 17.4766C24.7068 17.5256 24.7831 17.5905 24.8441 17.6676C24.9051 17.7447 24.9497 17.8326 24.9752 17.9262C25.0006 18.0197 25.0066 18.1172 24.9927 18.213C24.9788 18.3087 24.9452 18.4009 24.894 18.4843C24.8428 18.5677 24.7749 18.6407 24.6942 18.699C24.6135 18.7573 24.5216 18.7998 24.4236 18.8242L15.347 21.0777L15.0101 21.1778C15.0029 22.4243 14.1022 23.5637 12.7404 23.9024C11.1065 24.3087 9.42731 23.4097 8.98981 21.8962C8.5523 20.3818 9.5218 18.8252 11.1547 18.4198C11.2352 18.4 11.3164 18.383 11.3981 18.3688L9.18802 10.7251C9.12852 10.5287 9.01686 10.3504 8.86389 10.2075C8.71092 10.0645 8.52185 9.96188 8.31506 9.90948L6.56505 9.44524C6.46753 9.41948 6.37627 9.37561 6.29649 9.31614C6.21672 9.25666 6.14999 9.18275 6.10011 9.09863C6.05023 9.0145 6.01818 8.92181 6.00579 8.82585C5.99341 8.72988 6.00093 8.63252 6.02792 8.53934Z" fill="black"/>
</svg>
