<svg width="42" height="28" viewBox="0 0 42 28" fill="none" xmlns="http://www.w3.org/2000/svg">
<rect x="0.5" y="1.4707" width="41" height="26" fill="white" stroke="#9B9B9B"/>
<path d="M18.2018 18.6881H15.7339L17.2775 9.14355H19.7453L18.2018 18.6881Z" fill="#9B9B9B"/>
<path d="M27.1482 9.37705C26.6614 9.18393 25.8894 8.9707 24.9347 8.9707C22.4975 8.9707 20.7813 10.2703 20.7708 12.1284C20.7505 13.4993 21.9995 14.2607 22.9337 14.7178C23.8885 15.1849 24.2131 15.4897 24.2131 15.9061C24.2034 16.5455 23.4415 16.8402 22.731 16.8402C21.7457 16.8402 21.2178 16.6883 20.4154 16.3325L20.0905 16.18L19.7451 18.3226C20.3239 18.5863 21.3904 18.8203 22.4975 18.8305C25.0871 18.8305 26.7729 17.551 26.7929 15.571C26.8027 14.4844 26.1432 13.6519 24.7213 12.9716C23.8581 12.5349 23.3295 12.2404 23.3295 11.7936C23.3397 11.3873 23.7766 10.9713 24.751 10.9713C25.5533 10.9509 26.1428 11.1438 26.5894 11.3367L26.8126 11.4381L27.1482 9.37705Z" fill="#9B9B9B"/>
<path d="M30.4282 15.3068C30.6314 14.7585 31.4135 12.6363 31.4135 12.6363C31.4032 12.6567 31.6163 12.0779 31.7382 11.7226L31.9106 12.545C31.9106 12.545 32.378 14.8296 32.4795 15.3068C32.0938 15.3068 30.9156 15.3068 30.4282 15.3068ZM33.4745 9.14355H31.5656C30.9769 9.14355 30.5296 9.31603 30.2757 9.93547L26.6099 18.688H29.1994C29.1994 18.688 29.6257 17.51 29.7173 17.2563C30.0014 17.2563 32.5205 17.2563 32.886 17.2563C32.9568 17.5914 33.1804 18.688 33.1804 18.688H35.4655L33.4745 9.14355Z" fill="#9B9B9B"/>
<path d="M13.6722 9.14355L11.2553 15.652L10.9912 14.332C10.5443 12.8089 9.14296 11.1541 7.5791 10.3313L9.79291 18.678H12.4027L16.2818 9.14355H13.6722Z" fill="#9B9B9B"/>
<path d="M9.01128 9.14355H5.04062L5 9.33641C8.09736 10.1285 10.1487 12.0377 10.9915 14.3325L10.1283 9.94586C9.98619 9.33627 9.54948 9.16366 9.01128 9.14355Z" fill="#DFDFDF"/>
</svg>
